<svg width="16" height="16" viewBox="0 0 16 16" fill="none" xmlns="http://www.w3.org/2000/svg">
<g id="add_FILL0_wght500_GRAD0_opsz24 1">
<path id="Vector" d="M7.24209 8.75839H3.95659C3.74378 8.75839 3.56419 8.6852 3.41781 8.53883C3.27143 8.39245 3.19824 8.21286 3.19824 8.00006C3.19824 7.78726 3.27143 7.60767 3.41781 7.46129C3.56419 7.31492 3.74378 7.24173 3.95659 7.24173H7.24209V3.95623C7.24209 3.74341 7.31528 3.56382 7.46166 3.41744C7.60804 3.27107 7.78763 3.19788 8.00043 3.19788C8.21323 3.19788 8.39281 3.27107 8.53919 3.41744C8.68557 3.56382 8.75876 3.74341 8.75876 3.95623V7.24173H12.0443C12.2571 7.24173 12.4367 7.31492 12.583 7.46129C12.7294 7.60767 12.8026 7.78726 12.8026 8.00006C12.8026 8.21286 12.7294 8.39245 12.583 8.53883C12.4367 8.6852 12.2571 8.75839 12.0443 8.75839H8.75876V12.0439C8.75876 12.2567 8.68557 12.4363 8.53919 12.5827C8.39281 12.7291 8.21323 12.8022 8.00043 12.8022C7.78763 12.8022 7.60804 12.7291 7.46166 12.5827C7.31528 12.4363 7.24209 12.2567 7.24209 12.0439V8.75839Z" fill="#1A57C9"/>
</g>
</svg>
