<svg width="10" height="5" viewBox="0 0 10 5" fill="none" xmlns="http://www.w3.org/2000/svg">
<path d="M4.48064 4.35547L1.06692 0.941774C1.01983 0.894686 0.982747 0.842107 0.955664 0.78404C0.928581 0.725955 0.915039 0.663727 0.915039 0.597355C0.915039 0.46461 0.959926 0.349281 1.0497 0.251366C1.13945 0.153451 1.25776 0.104492 1.40462 0.104492H8.59622C8.74309 0.104492 8.8614 0.15392 8.95115 0.252774C9.04092 0.351647 9.08581 0.466986 9.08581 0.598791C9.08581 0.631761 9.03511 0.746161 8.93371 0.941991L5.52021 4.35549C5.44174 4.43396 5.36062 4.49125 5.27686 4.52736C5.19309 4.56348 5.10094 4.58153 5.00042 4.58153C4.89991 4.58153 4.80776 4.56348 4.72398 4.52736C4.64022 4.49125 4.55911 4.43395 4.48064 4.35547Z" fill="#333236"/>
</svg>
