<svg width="20" height="20" viewBox="0 0 20 20" fill="none" xmlns="http://www.w3.org/2000/svg">
<path d="M4.42341 18.657C4.00246 18.657 3.64616 18.5111 3.35449 18.2195C3.06283 17.9278 2.91699 17.5715 2.91699 17.1506V5.99677C2.91699 5.57582 3.06283 5.21952 3.35449 4.92785C3.64616 4.63618 4.00246 4.49035 4.42341 4.49035H5.57726V3.36854C5.57726 3.18586 5.63843 3.03335 5.76076 2.91102C5.88308 2.7887 6.03559 2.72754 6.21828 2.72754C6.40096 2.72754 6.55347 2.7887 6.6758 2.91102C6.79812 3.03335 6.85928 3.18586 6.85928 3.36854V4.49035H13.1734V3.35252C13.1734 3.17517 13.2332 3.02667 13.3528 2.90702C13.4725 2.78737 13.621 2.72754 13.7983 2.72754C13.9757 2.72754 14.1242 2.78737 14.2438 2.90702C14.3635 3.02667 14.4233 3.17517 14.4233 3.35252V4.49035H15.5772C15.9981 4.49035 16.3545 4.63618 16.6461 4.92785C16.9378 5.21952 17.0836 5.57582 17.0836 5.99677V17.1506C17.0836 17.5715 16.9378 17.9278 16.6461 18.2195C16.3545 18.5111 15.9981 18.657 15.5772 18.657H4.42341ZM4.42341 17.407H15.5772C15.6413 17.407 15.7001 17.3803 15.7535 17.3269C15.8069 17.2734 15.8336 17.2147 15.8336 17.1506V9.3301H4.16697V17.1506C4.16697 17.2147 4.19368 17.2734 4.2471 17.3269C4.30053 17.3803 4.3593 17.407 4.42341 17.407ZM4.16697 8.08012H15.8336V5.99677C15.8336 5.93266 15.8069 5.87389 15.7535 5.82046C15.7001 5.76704 15.6413 5.74033 15.5772 5.74033H4.42341C4.3593 5.74033 4.30053 5.76704 4.2471 5.82046C4.19368 5.87389 4.16697 5.93266 4.16697 5.99677V8.08012Z" fill="#9FA6B2"/>
</svg>
