<svg width="14" height="10" viewBox="0 0 14 10" fill="none" xmlns="http://www.w3.org/2000/svg">
<path d="M4.75443 8.2223L12.673 0.303724C12.8094 0.167401 12.9712 0.0977641 13.1587 0.0948155C13.3461 0.0918822 13.5109 0.161519 13.6531 0.303724C13.7953 0.445915 13.8664 0.609264 13.8664 0.793774C13.8664 0.978268 13.7953 1.14162 13.6531 1.28382L5.33438 9.60255C5.16868 9.76826 4.97536 9.85111 4.75443 9.85111C4.53349 9.85111 4.34018 9.76826 4.17447 9.60255L0.347391 5.77549C0.211068 5.63917 0.143784 5.47728 0.145541 5.28984C0.147314 5.1024 0.219295 4.93758 0.361485 4.79539C0.503691 4.65319 0.667041 4.58208 0.851535 4.58208C1.03604 4.58208 1.1994 4.65319 1.34159 4.79539L4.75443 8.2223Z" fill="#FFFFFF"/>
</svg>
