<svg width="32" height="32" viewBox="0 0 32 32" fill="none" xmlns="http://www.w3.org/2000/svg">
<path d="M16 17.4051L9.23585 24.1692C9.05125 24.3538 8.8192 24.4483 8.53972 24.4525C8.26025 24.4568 8.02394 24.3624 7.83078 24.1692C7.6376 23.9761 7.54102 23.7419 7.54102 23.4667C7.54102 23.1915 7.6376 22.9573 7.83078 22.7641L14.5949 16L7.83078 9.23588C7.64616 9.05128 7.55172 8.81924 7.54745 8.53975C7.54316 8.26028 7.6376 8.02397 7.83078 7.83081C8.02394 7.63763 8.25812 7.54105 8.53332 7.54105C8.80852 7.54105 9.04269 7.63763 9.23585 7.83081L16 14.5949L22.7641 7.83081C22.9487 7.64619 23.1808 7.55175 23.4602 7.54748C23.7397 7.54319 23.976 7.63763 24.1692 7.83081C24.3624 8.02397 24.4589 8.25815 24.4589 8.53335C24.4589 8.80855 24.3624 9.04272 24.1692 9.23588L17.4051 16L24.1692 22.7641C24.3538 22.9487 24.4482 23.1808 24.4525 23.4603C24.4568 23.7397 24.3624 23.9761 24.1692 24.1692C23.976 24.3624 23.7418 24.459 23.4666 24.459C23.1914 24.459 22.9573 24.3624 22.7641 24.1692L16 17.4051Z" fill="black"/>
</svg>
