<svg width="50" height="50" viewBox="0 0 50 50" fill="none" xmlns="http://www.w3.org/2000/svg">
<g clip-path="url(#clip0_663_11774)">
<path d="M2.12024 47.8791L2.1201 47.8789C1.77561 47.5345 1.60156 47.1185 1.60156 46.5798V41.6575C1.60156 41.0636 1.71497 40.5028 1.94102 39.9692L1.94108 39.969C2.1706 39.4269 2.48319 38.9614 2.87873 38.5659C2.87875 38.5659 2.87878 38.5659 2.87881 38.5658L38.8413 2.6197C39.205 2.29184 39.6013 2.04199 40.0318 1.86548C40.4591 1.69025 40.9067 1.60229 41.3804 1.60229C41.859 1.60229 42.3206 1.68683 42.7701 1.85699C43.1905 2.01615 43.568 2.27016 43.9057 2.6317L43.9129 2.63934L43.9202 2.64678L47.3895 6.15963L47.4002 6.1704L47.4112 6.18074C47.769 6.51486 48.0126 6.88719 48.1575 7.30117L48.1576 7.30145C48.319 7.76188 48.3968 8.21369 48.3968 8.66005C48.3968 9.14399 48.3146 9.59961 48.1522 10.0318C47.9975 10.443 47.7489 10.8287 47.3916 11.1895C47.3912 11.1899 47.3908 11.1903 47.3904 11.1907L11.4336 47.1202L11.4334 47.1203C11.0377 47.516 10.5722 47.8287 10.0304 48.058L10.0302 48.058C9.49633 48.2841 8.93559 48.3975 8.34161 48.3975H3.41931C2.88058 48.3975 2.46469 48.2236 2.12024 47.8791ZM40.2415 13.298L40.77 13.8265L41.3004 13.2997L45.4142 9.21316L45.9481 8.68284L45.416 8.15074L41.8485 4.58326L41.3164 4.05117L40.7861 4.58503L36.6995 8.69887L36.1727 9.22919L36.7012 9.75776L40.2415 13.298Z" fill="white" stroke="black" stroke-width="1.5"/>
</g>
<defs>
<clipPath id="clip0_663_11774">
<rect width="50" height="50" fill="white"/>
</clipPath>
</defs>
</svg>
