<svg width="16" height="15" viewBox="0 0 16 15" fill="none" xmlns="http://www.w3.org/2000/svg">
<path d="M7.37533 7.70829V10.4166C7.37533 10.594 7.43515 10.7425 7.55481 10.8621C7.67446 10.9818 7.82296 11.0416 8.00031 11.0416C8.17765 11.0416 8.32615 10.9818 8.44581 10.8621C8.56546 10.7425 8.62528 10.594 8.62528 10.4166V7.70829H11.3336C11.511 7.70829 11.6595 7.64847 11.7791 7.52881C11.8988 7.40916 11.9586 7.26066 11.9586 7.08331C11.9586 6.90597 11.8988 6.75747 11.7791 6.63781C11.6595 6.51816 11.511 6.45833 11.3336 6.45833H8.62528V3.74998C8.62528 3.57263 8.56546 3.42413 8.44581 3.30448C8.32615 3.18483 8.17765 3.125 8.00031 3.125C7.82296 3.125 7.67446 3.18483 7.55481 3.30448C7.43515 3.42413 7.37533 3.57263 7.37533 3.74998V6.45833H4.66697C4.48962 6.45833 4.34112 6.51816 4.22147 6.63781C4.10182 6.75747 4.04199 6.90597 4.04199 7.08331C4.04199 7.26066 4.10182 7.40916 4.22147 7.52881C4.34112 7.64847 4.48962 7.70829 4.66697 7.70829H7.37533ZM2.42341 14.1666C2.00246 14.1666 1.64616 14.0208 1.35449 13.7291C1.06283 13.4375 0.916992 13.0812 0.916992 12.6602V1.50642C0.916992 1.08547 1.06283 0.729167 1.35449 0.4375C1.64616 0.145833 2.00246 0 2.42341 0H13.5772C13.9981 0 14.3545 0.145833 14.6461 0.4375C14.9378 0.729167 15.0836 1.08547 15.0836 1.50642V12.6602C15.0836 13.0812 14.9378 13.4375 14.6461 13.7291C14.3545 14.0208 13.9981 14.1666 13.5772 14.1666H2.42341ZM2.42341 12.9166H13.5772C13.6413 12.9166 13.7001 12.8899 13.7535 12.8365C13.8069 12.7831 13.8336 12.7243 13.8336 12.6602V1.50642C13.8336 1.44231 13.8069 1.38354 13.7535 1.3301C13.7001 1.27669 13.6413 1.24998 13.5772 1.24998H2.42341C2.3593 1.24998 2.30053 1.27669 2.2471 1.3301C2.19368 1.38354 2.16697 1.44231 2.16697 1.50642V12.6602C2.16697 12.7243 2.19368 12.7831 2.2471 12.8365C2.30053 12.8899 2.3593 12.9166 2.42341 12.9166Z" fill="#787486"/>
</svg>
