<svg width="12" height="12" viewBox="0 0 12 12" fill="none" xmlns="http://www.w3.org/2000/svg">
<path d="M1.95562 7.25827H4.74112V10.0438C4.74112 10.385 4.86408 10.6931 5.10713 10.9361C5.35017 11.1791 5.65819 11.3021 5.99945 11.3021C6.3407 11.3021 6.64873 11.1791 6.89177 10.9361C7.13482 10.6931 7.25778 10.385 7.25778 10.0438V7.25827H10.0433C10.3845 7.25827 10.6926 7.1353 10.9356 6.89226C11.1787 6.64922 11.3016 6.34119 11.3016 5.99994C11.3016 5.65868 11.1787 5.35066 10.9356 5.10762C10.6926 4.86457 10.3845 4.7416 10.0433 4.7416H7.25778V1.9561C7.25778 1.61484 7.13481 1.30681 6.89177 1.06377C6.64873 0.820727 6.34071 0.697754 5.99945 0.697754C5.65819 0.697754 5.35017 0.820727 5.10713 1.06377C4.86408 1.30681 4.74112 1.61484 4.74112 1.9561V4.7416H1.95562C1.61435 4.7416 1.30633 4.86457 1.06328 5.10762C0.820238 5.35066 0.697266 5.65868 0.697266 5.99994C0.697266 6.34119 0.820238 6.64922 1.06328 6.89226C1.30633 7.1353 1.61435 7.25827 1.95562 7.25827Z" fill="#787486" stroke="white"/>
</svg>
